<?xml version="1.0" standalone="no"?>
<!DOCTYPE svg PUBLIC "-//W3C//DTD SVG 20010904//EN"
 "http://www.w3.org/TR/2001/REC-SVG-20010904/DTD/svg10.dtd">
<svg version="1.0" xmlns="http://www.w3.org/2000/svg"
 width="1280.000000pt" height="561.000000pt" viewBox="0 0 1280.000000 561.000000"
 preserveAspectRatio="xMidYMid meet">
<metadata>
Created by potrace 1.16, written by Peter Selinger 2001-2019
</metadata>
<g transform="translate(0.000000,561.000000) scale(0.100000,-0.100000)"
fill="#000000" stroke="none">
<path d="M9301 5396 c-9 -10 -9 -20 1 -41 10 -22 9 -28 -3 -36 -21 -13 -39
-11 -45 6 -11 29 -25 15 -22 -22 3 -33 7 -38 30 -41 17 -2 34 4 47 17 16 16
20 17 25 5 4 -11 22 -14 73 -12 38 1 71 7 75 13 11 15 9 47 -2 40 -15 -10 -71
5 -64 16 3 6 18 10 32 9 41 -3 44 -1 32 21 -18 33 -71 23 -90 -18 -8 -18 -19
-33 -23 -33 -4 0 -16 20 -27 45 -21 50 -23 51 -39 31z"/>
<path d="M9952 5368 c-21 -21 -14 -39 12 -32 13 3 27 1 30 -5 12 -19 -65 -13
-80 7 -13 16 -15 16 -25 0 -11 -19 -64 -25 -74 -8 -11 17 -33 11 -40 -11 -5
-14 -1 -25 12 -35 17 -13 17 -15 -12 -39 -16 -14 -36 -25 -42 -25 -7 0 -13 -7
-13 -15 0 -11 11 -15 36 -15 40 0 63 21 64 58 0 24 18 27 121 22 31 -1 60 5
87 19 23 12 48 21 56 21 11 0 26 20 26 35 0 6 -106 35 -127 35 -10 0 -24 -5
-31 -12z"/>
<path d="M5465 4760 c-4 -11 -5 -40 -4 -63 3 -47 -5 -67 -26 -67 -11 0 -13 8
-9 30 5 22 2 31 -10 36 -21 8 -56 -22 -56 -48 0 -12 -7 -18 -23 -18 -44 0 -65
-49 -29 -69 13 -8 9 -10 -24 -11 -47 0 -69 18 -59 50 7 23 -10 28 -19 4 -11
-28 -6 -62 11 -79 31 -31 143 -2 143 37 0 9 -8 22 -17 27 -21 12 -13 13 158
11 82 0 126 4 151 14 32 14 37 14 42 1 6 -16 81 -21 90 -6 3 4 17 6 31 3 22
-4 25 -1 25 27 0 44 -27 52 -54 18 -24 -30 -46 -35 -46 -12 0 8 -8 15 -19 15
-10 0 -36 6 -58 14 -26 9 -45 11 -56 4 -26 -14 -20 -28 11 -29 l27 -1 -28 -10
c-20 -7 -32 -7 -41 2 -10 7 -16 8 -21 0 -10 -16 -52 -12 -59 6 -3 9 -6 40 -6
69 0 56 -14 80 -25 45z"/>
<path d="M8124 4755 c-3 -14 -3 -40 0 -59 8 -39 -1 -66 -20 -66 -9 0 -14 11
-14 30 0 38 -27 52 -46 25 -8 -10 -14 -29 -14 -41 0 -19 -7 -24 -47 -30 -60
-9 -98 5 -97 34 1 32 -20 21 -24 -12 -5 -43 13 -56 79 -56 32 0 70 5 86 11 15
5 78 10 139 10 77 -1 123 4 147 14 31 13 36 13 41 0 6 -16 81 -21 90 -6 3 4
17 6 31 3 23 -4 25 -1 25 32 0 29 -4 36 -20 36 -11 0 -27 -11 -36 -25 -18 -27
-50 -35 -40 -10 4 11 -1 15 -18 15 -13 0 -41 6 -63 14 -26 9 -45 11 -56 4 -26
-14 -20 -28 11 -29 l27 0 -23 -12 c-18 -8 -28 -8 -42 1 -12 7 -21 8 -25 2 -10
-17 -44 -11 -55 9 -5 11 -10 45 -10 75 0 58 -15 75 -26 31z"/>
<path d="M9864 4244 c-92 -49 -108 -83 -54 -119 38 -25 38 -32 -1 -40 -41 -9
-50 2 -56 74 -4 39 -10 60 -17 58 -13 -4 -9 -123 5 -149 13 -25 83 -24 108 1
18 18 19 18 42 0 47 -36 104 -17 97 32 -4 33 -28 36 -28 5 0 -35 -20 -33 -69
8 -23 19 -51 38 -62 41 -31 10 -18 27 44 58 31 16 57 35 57 43 0 20 -10 18
-66 -12z"/>
<path d="M5986 4224 c-32 -13 -65 -29 -72 -35 -23 -19 -16 -47 16 -66 17 -9
30 -20 30 -24 0 -13 -52 -20 -66 -8 -11 9 -18 9 -29 -1 -22 -18 -45 -5 -45 27
0 46 -12 103 -21 103 -10 0 -10 -89 0 -135 6 -30 7 -30 80 -32 44 -2 80 2 88
8 22 19 16 65 -12 87 l-25 20 47 18 c53 19 77 37 72 52 -3 6 -28 1 -63 -14z"/>
<path d="M10726 4164 c-3 -9 -3 -26 0 -40 7 -29 -19 -43 -46 -26 -14 9 -19 8
-24 -4 -3 -9 -6 -19 -6 -24 0 -15 36 -21 63 -11 17 7 28 7 32 1 9 -14 49 -12
63 2 9 9 15 9 24 0 17 -17 83 -15 98 2 13 17 10 61 -5 61 -5 0 -11 -10 -13
-22 -2 -17 -10 -23 -27 -23 -17 0 -25 6 -27 23 -2 18 -9 22 -38 22 -28 0 -35
-4 -40 -25 l-6 -25 -12 22 c-7 12 -12 33 -12 47 0 29 -15 43 -24 20z"/>
<path d="M2036 4109 c-32 -36 -46 -37 -46 -3 0 23 -3 25 -37 22 -33 -3 -38 -6
-36 -25 3 -29 -16 -30 -50 -3 -14 11 -29 20 -34 20 -5 0 -16 -9 -26 -20 -20
-24 -37 -26 -37 -5 0 21 -30 31 -41 14 -15 -25 -11 -59 9 -59 28 -1 -25 -40
-54 -40 -32 0 -31 -18 1 -26 34 -8 53 0 73 35 18 32 47 45 70 32 17 -10 92 -3
108 10 6 5 24 4 41 -3 18 -7 38 -8 49 -3 10 5 28 9 39 9 15 1 21 9 23 32 4 44
-20 50 -52 13z"/>
<path d="M3063 4134 c-24 -10 -14 -34 15 -35 l27 -1 -29 -9 c-19 -5 -34 -5
-42 2 -9 7 -19 6 -33 -3 -17 -10 -25 -10 -41 -1 -22 14 -35 2 -26 -24 8 -21
-31 -63 -58 -63 -14 0 -17 -3 -9 -11 6 -6 23 -9 39 -7 21 2 33 12 44 35 15 33
28 37 90 34 14 -1 42 5 62 13 21 9 51 16 68 16 47 0 36 24 -17 39 -70 19 -77
20 -90 15z"/>
<path d="M4453 3594 c4 -42 9 -80 13 -85 8 -14 47 -11 89 7 34 14 39 14 54 0
21 -19 82 -21 99 -4 16 16 16 71 0 65 -7 -2 -12 -12 -12 -21 1 -10 -6 -16 -17
-16 -10 0 -19 7 -19 15 0 10 -10 15 -26 15 -15 0 -44 5 -65 11 -30 9 -42 9
-54 -1 -22 -18 -19 -28 13 -33 22 -3 20 -4 -10 -6 l-38 -1 0 43 c0 52 -9 87
-23 87 -6 0 -8 -26 -4 -76z"/>
<path d="M10636 3662 c-3 -4 -2 -39 2 -76 9 -88 22 -98 93 -72 47 16 53 16 61
2 10 -18 73 -22 84 -5 3 6 17 8 30 5 29 -8 39 11 30 49 -8 32 -31 32 -52 0
-18 -27 -44 -34 -44 -11 0 13 -39 23 -115 29 -37 3 -49 -29 -13 -36 18 -3 16
-5 -8 -6 -38 -1 -44 11 -44 80 0 44 -11 62 -24 41z"/>
<path d="M2324 3565 c-18 -28 -55 -33 -74 -10 -16 19 -34 19 -49 1 -9 -11 -31
-14 -76 -12 -47 1 -66 -2 -70 -12 -3 -8 -3 -18 0 -23 11 -17 -16 -49 -48 -57
l-32 -9 29 -8 c34 -9 56 2 73 36 16 31 39 36 142 32 52 -2 88 0 97 7 7 7 22 9
33 5 24 -7 37 25 21 55 -14 27 -26 25 -46 -5z"/>
<path d="M5994 3565 c-18 -28 -55 -33 -74 -10 -16 19 -34 19 -49 1 -9 -11 -31
-14 -77 -12 -38 1 -65 -2 -65 -9 -1 -5 -2 -21 -3 -35 -1 -18 -11 -30 -33 -41
-35 -17 -34 -29 2 -29 23 0 47 22 58 53 7 19 17 21 136 18 48 -1 89 3 97 10 7
6 22 8 33 4 24 -7 37 25 21 55 -14 27 -26 25 -46 -5z"/>
<path d="M7379 3566 c-14 -29 -49 -35 -69 -11 -16 19 -46 19 -53 1 -4 -11 -24
-14 -74 -13 -67 1 -68 0 -68 -25 0 -31 -29 -65 -59 -71 -19 -3 -19 -4 -3 -11
29 -13 64 2 79 34 14 33 14 33 138 32 47 0 90 4 96 9 6 5 22 8 35 7 21 -3 24
1 24 32 0 44 -29 54 -46 16z"/>
<path d="M10803 3160 c-12 -5 -40 -20 -62 -35 -51 -32 -55 -64 -11 -95 36 -26
31 -40 -15 -40 -39 0 -45 11 -45 86 0 52 -13 72 -24 37 -9 -30 10 -144 25
-154 21 -14 82 -2 100 19 15 19 16 19 43 -4 29 -25 51 -30 61 -14 3 6 19 10
36 10 22 0 29 5 29 19 0 54 -29 67 -56 26 -21 -32 -29 -31 -72 3 -20 15 -49
34 -65 43 l-30 16 49 27 c27 15 55 31 63 35 20 10 26 31 9 30 -7 0 -23 -4 -35
-9z"/>
<path d="M3717 3117 c-8 -21 8 -148 20 -155 6 -4 73 -7 148 -6 106 1 139 4
146 15 13 20 6 54 -11 54 -9 0 -14 -7 -12 -17 3 -21 -33 -25 -41 -5 -4 9 -8 8
-17 -3 -9 -12 -13 -12 -17 -2 -4 10 -8 10 -20 1 -12 -10 -16 -10 -23 1 -7 12
-11 12 -25 0 -13 -11 -21 -11 -35 -2 -12 7 -21 8 -25 2 -3 -6 -17 -10 -29 -10
-27 0 -36 21 -36 93 0 44 -12 62 -23 34z"/>
<path d="M6024 3121 c-14 -15 1 -152 18 -163 7 -4 26 -5 42 -2 16 4 48 5 70 4
75 -4 101 -2 139 14 49 22 51 50 2 40 -23 -4 -35 -2 -35 5 0 6 14 11 32 11 30
0 31 1 16 16 -25 26 -67 11 -75 -26 -6 -30 -27 -40 -36 -17 -4 9 -8 8 -16 -3
-10 -13 -12 -13 -21 0 -9 13 -11 13 -20 0 -9 -13 -11 -13 -20 0 -7 12 -12 12
-22 2 -6 -6 -20 -12 -29 -12 -14 0 -19 14 -26 71 -6 49 -11 67 -19 60z"/>
<path d="M10048 3124 c-10 -9 -10 -75 -2 -126 7 -43 22 -50 79 -39 22 4 57 3
77 -1 47 -10 141 19 146 46 3 15 -1 16 -34 10 -26 -5 -35 -4 -30 5 4 6 19 11
33 11 21 0 24 2 13 15 -7 8 -20 15 -30 15 -21 0 -50 -31 -50 -53 0 -20 -26
-23 -33 -4 -4 9 -8 8 -16 -3 -10 -13 -12 -13 -21 0 -9 13 -11 13 -20 0 -9 -13
-11 -13 -20 0 -7 12 -12 12 -22 2 -6 -6 -20 -12 -30 -12 -14 0 -18 8 -19 33 0
50 -13 110 -21 101z"/>
<path d="M8975 3070 c-4 -6 -4 -23 0 -39 5 -24 2 -30 -15 -36 -12 -4 -27 -1
-35 5 -12 10 -16 9 -21 -3 -3 -9 -3 -21 1 -27 8 -13 62 -13 70 0 4 6 12 4 22
-5 10 -10 22 -13 37 -8 11 4 32 6 46 4 85 -11 113 1 108 43 -4 27 -28 33 -28
7 0 -16 -6 -21 -29 -21 -24 0 -28 3 -24 20 4 14 -1 21 -21 26 -30 7 -60 -12
-52 -33 3 -7 -1 -13 -8 -13 -16 0 -26 21 -26 55 0 26 -15 41 -25 25z"/>
<path d="M7175 3041 c-11 -5 -29 -18 -39 -30 -21 -24 -42 -27 -49 -8 -4 10 -7
10 -18 0 -17 -17 -39 -16 -39 1 0 8 -17 16 -42 21 -78 13 -102 11 -106 -7 -2
-12 1 -16 11 -12 8 3 18 1 22 -5 4 -7 -5 -11 -24 -11 -18 0 -31 5 -31 12 0 9
-3 9 -12 0 -7 -7 -28 -12 -47 -11 -20 0 -30 3 -23 6 6 2 12 11 12 19 0 12 -13
14 -67 12 -42 -2 -68 -8 -71 -15 -2 -8 6 -13 20 -13 20 -1 21 -2 7 -13 -44
-34 -51 -96 -14 -132 19 -20 34 -25 72 -25 26 1 59 7 72 14 23 13 20 14 -42
18 -46 3 -72 10 -86 22 -27 25 -26 39 3 73 24 28 25 28 54 11 34 -20 135 -19
194 2 32 12 38 11 54 -4 14 -14 27 -17 60 -12 35 4 45 2 53 -12 9 -16 11 -16
23 -1 7 9 29 20 49 23 44 8 62 26 57 58 -3 25 -22 32 -53 19z"/>
<path d="M7566 3025 c-9 -25 -8 -27 14 -20 11 4 20 2 20 -4 0 -15 -57 -14 -63
2 -3 9 -7 9 -19 -1 -13 -10 -17 -10 -20 0 -4 11 -8 11 -20 0 -8 -7 -26 -11
-39 -10 -21 3 -24 -1 -22 -26 3 -38 -12 -56 -47 -56 -33 0 -53 20 -44 46 5 18
5 18 -10 0 -20 -25 -20 -50 0 -70 31 -31 95 -11 115 35 6 16 21 31 33 34 42 9
61 9 74 1 7 -4 36 0 67 9 50 16 55 16 70 1 19 -18 57 -21 86 -6 22 12 28 75 7
67 -7 -2 -12 -12 -12 -21 1 -10 -6 -16 -17 -16 -10 0 -19 6 -19 14 0 8 -15 16
-37 20 -21 3 -54 8 -74 12 -28 5 -38 2 -43 -11z"/>
<path d="M1520 2560 c0 -7 637 -10 1890 -10 1253 0 1890 3 1890 10 0 7 -637
10 -1890 10 -1253 0 -1890 -3 -1890 -10z"/>
<path d="M2308 2473 c7 -3 12 -24 12 -54 0 -55 -17 -67 -22 -16 -3 27 -7 33
-32 35 -16 2 -32 -2 -37 -10 -7 -10 -9 -10 -9 0 0 7 -14 12 -34 12 -19 0 -36
6 -39 13 -9 25 -31 -13 -30 -51 l1 -37 -6 35 c-6 31 -11 35 -42 38 l-35 3 0
-45 -1 -45 88 0 87 0 -6 36 c-4 26 -3 34 5 29 7 -4 12 -15 12 -25 0 -28 20
-38 78 -39 44 -1 53 2 48 14 -3 9 -6 38 -6 65 0 44 -2 49 -22 48 -13 0 -17 -3
-10 -6z"/>
<path d="M2475 2450 c-3 -6 -22 -10 -41 -10 -27 0 -34 -4 -34 -19 0 -10 10
-26 23 -35 l22 -17 -22 6 c-17 5 -23 2 -23 -10 0 -12 7 -15 28 -13 21 2 27 9
29 28 3 50 6 54 12 15 l6 -40 150 0 c148 0 150 0 153 23 2 13 -3 25 -12 28 -9
3 -16 11 -16 16 0 6 6 5 15 -2 12 -10 15 -10 15 4 0 10 -9 16 -25 16 -36 0
-44 -28 -15 -50 l24 -18 -27 1 c-23 2 -27 6 -27 35 0 19 -5 32 -13 32 -9 0
-12 -11 -9 -36 3 -28 1 -35 -9 -32 -8 3 -15 19 -17 36 -2 23 -8 32 -22 32 -10
0 -20 5 -22 12 -9 26 -34 -15 -31 -51 l2 -36 -7 35 c-6 28 -12 36 -33 38 -23
3 -27 -1 -33 -32 -4 -20 -11 -36 -16 -36 -13 0 -13 57 -1 62 5 2 3 9 -4 15 -9
8 -16 9 -20 3z"/>
<path d="M2998 2443 c-25 -4 -28 -8 -29 -49 -1 -24 -2 -50 -3 -56 -2 -20 73
-23 80 -4 4 12 20 16 54 16 57 0 63 7 54 55 -5 28 -11 35 -30 35 -31 0 -32
-32 -1 -53 22 -15 22 -15 -10 -15 -31 1 -33 4 -33 35 0 20 -5 33 -13 33 -9 0
-12 -11 -9 -35 3 -26 0 -35 -11 -35 -12 0 -14 9 -10 40 3 22 2 39 -3 39 -5 -1
-21 -4 -36 -6z"/>
<path d="M2086 2238 c2 -24 1 -36 -2 -28 -25 56 -95 25 -80 -36 9 -33 62 -34
76 -1 9 22 9 22 9 1 1 -21 5 -22 109 -22 59 0 101 2 95 5 -9 3 -13 26 -13 64
0 42 -4 59 -13 59 -10 0 -12 -15 -9 -60 3 -38 1 -60 -6 -60 -6 0 -12 17 -14
38 -3 32 -6 37 -27 37 -13 0 -26 -6 -29 -14 -3 -9 1 -11 17 -6 11 3 21 2 21
-3 0 -5 -11 -12 -24 -14 -18 -4 -26 0 -29 14 -3 11 -15 22 -26 25 -12 3 -21
14 -21 24 0 12 -7 19 -19 19 -16 0 -19 -6 -15 -42z"/>
<path d="M2478 2239 c-2 -5 -2 -27 0 -49 l4 -38 77 -1 78 -1 -5 30 c-3 23 -1
30 13 30 14 0 16 -7 13 -30 -4 -27 -2 -30 21 -29 14 0 20 3 14 6 -21 8 -15 50
7 56 17 4 20 0 20 -29 0 -33 1 -34 41 -34 36 0 41 -2 36 -20 -4 -16 0 -20 20
-20 20 0 23 4 18 20 -5 16 -2 20 14 20 14 0 23 9 27 27 11 42 -6 58 -69 61
l-56 3 6 -36 c4 -23 2 -35 -6 -35 -6 0 -11 15 -11 34 l0 34 -97 0 c-105 0
-123 -7 -123 -44 0 -13 -4 -24 -10 -24 -15 0 -12 47 3 53 9 4 8 8 -3 16 -19
14 -27 14 -32 0z"/>
<path d="M3305 2040 c-3 -5 -20 -10 -36 -10 -40 0 -49 -27 -18 -52 19 -16 20
-19 5 -14 -11 4 -23 1 -28 -6 -5 -8 -8 3 -8 28 0 37 -3 42 -25 47 -14 2 -40 1
-58 -2 -31 -7 -32 -8 -35 -63 -2 -49 1 -57 18 -63 21 -7 60 10 60 25 0 5 24
10 53 12 44 3 52 6 55 24 2 13 -5 24 -20 31 -23 10 -22 11 4 9 24 -1 28 -5 28
-33 l0 -32 55 0 c30 0 55 5 55 10 0 5 -9 9 -20 9 -11 0 -20 5 -20 10 0 6 11
10 25 10 14 0 25 4 25 9 0 25 -14 41 -36 41 -26 0 -49 -33 -40 -57 4 -9 1 -13
-6 -11 -18 6 -23 39 -7 48 9 6 9 12 -4 24 -10 10 -18 12 -22 6z"/>
<path d="M2032 2018 c-7 -7 -12 -21 -12 -33 0 -33 20 -45 71 -45 l48 0 -6 35
c-5 31 -3 35 12 29 12 -5 16 -15 13 -35 -4 -24 -1 -29 17 -29 18 0 20 5 17 33
-3 26 0 34 12 34 11 0 16 -10 16 -34 0 -32 1 -33 41 -33 36 0 40 -2 34 -20 -5
-17 -2 -20 20 -20 21 0 25 4 20 19 -4 13 0 20 15 24 25 6 34 29 26 62 -6 23
-11 25 -64 25 l-58 0 4 -35 c3 -21 0 -35 -7 -35 -6 0 -11 15 -11 34 l0 34 -75
1 c-66 1 -74 -1 -69 -17 5 -16 5 -16 -6 1 -13 20 -41 22 -58 5z"/>
<path d="M3124 1829 c-3 -6 -15 -8 -26 -6 -46 12 -68 -32 -27 -53 11 -7 18
-14 15 -17 -3 -3 -12 -1 -20 6 -11 9 -15 9 -19 -1 -3 -7 -6 3 -6 23 -1 32 -5
37 -29 42 -16 3 -37 4 -48 2 -10 -2 -25 -4 -31 -4 -9 -1 -13 -20 -13 -61 l0
-60 36 0 c28 0 37 5 41 21 5 18 11 21 46 16 22 -3 46 -3 53 0 21 8 17 39 -8
56 l-23 16 25 -2 c20 -2 26 -8 30 -37 5 -34 6 -35 53 -36 52 -2 70 9 34 21
-21 8 -21 8 6 12 30 5 35 24 12 46 -30 31 -83 -17 -60 -54 5 -7 3 -10 -6 -7
-17 5 -25 48 -11 57 6 4 5 11 -4 18 -9 9 -15 10 -20 2z"/>
<path d="M2033 1812 c-19 -19 -16 -60 5 -71 10 -5 36 -7 58 -4 38 5 40 7 36
34 -4 24 -1 28 13 23 11 -5 15 -15 12 -30 -3 -19 0 -24 18 -24 18 0 21 4 17
31 -3 22 -1 30 7 25 6 -4 12 -1 12 6 1 7 5 -5 8 -27 6 -39 7 -40 45 -37 35 3
38 1 33 -17 -4 -17 0 -21 19 -21 15 0 22 5 18 13 -3 8 6 18 21 25 19 9 25 19
25 41 0 38 -16 47 -77 43 l-49 -4 4 -35 c3 -25 1 -34 -7 -29 -6 4 -11 20 -11
37 0 16 -5 29 -12 30 -118 5 -183 2 -195 -9z"/>
<path d="M2558 1602 l4 -59 -31 5 c-25 3 -31 9 -31 29 0 22 3 24 25 19 18 -5
25 -2 25 9 0 10 -10 15 -30 15 -38 0 -59 -35 -41 -68 10 -20 20 -21 159 -21
l148 0 -4 35 c-4 28 -1 33 12 28 11 -4 16 -1 16 10 0 11 -9 16 -29 16 -28 0
-29 -1 -24 -40 4 -25 2 -40 -5 -40 -6 0 -12 17 -14 38 -3 32 -7 37 -30 40 -21
2 -28 -1 -28 -13 0 -12 6 -15 21 -10 15 5 19 4 15 -4 -4 -6 -14 -11 -22 -11
-8 0 -17 -7 -20 -15 -7 -17 -40 -20 -49 -5 -4 6 5 10 20 10 22 0 26 4 23 23
-2 17 -10 22 -33 22 -27 0 -30 -3 -33 -37 -5 -61 -22 -44 -22 22 0 43 -4 60
-13 60 -10 0 -12 -15 -9 -58z"/>
<path d="M2031 1607 c-12 -12 -14 -37 -5 -61 5 -12 20 -16 58 -16 l52 0 -4 35
c-4 30 -2 34 13 29 12 -5 16 -15 13 -35 -4 -24 -1 -29 17 -29 18 0 20 5 17 33
-3 26 0 34 12 34 11 0 16 -10 16 -34 0 -32 1 -33 41 -33 36 0 40 -2 34 -20 -5
-17 -2 -20 20 -20 22 0 25 3 20 20 -5 16 -2 20 14 20 14 0 23 9 27 27 11 42
-6 58 -69 61 l-56 3 6 -36 c4 -23 2 -35 -6 -35 -6 0 -11 15 -11 34 l0 35 -99
-1 c-59 0 -103 -4 -110 -11z"/>
<path d="M3040 1421 c0 -6 -17 -11 -37 -13 -44 -4 -52 -19 -23 -46 l22 -20
-26 2 c-22 1 -26 6 -26 34 0 26 -4 32 -22 34 -44 2 -83 -4 -91 -15 -6 -9 -10
-9 -14 1 -3 8 -26 12 -66 12 l-62 0 0 -45 c0 -40 2 -45 22 -45 19 0 21 4 16
35 -3 19 -3 35 1 35 4 0 14 -16 22 -35 11 -27 20 -35 39 -35 14 0 25 5 25 10
0 6 -6 10 -14 10 -28 0 -26 18 3 22 27 4 28 2 27 -31 -1 -34 1 -36 32 -39 23
-2 38 2 46 14 8 11 26 16 54 16 54 -1 76 23 44 48 -12 10 -22 21 -22 25 0 4 7
2 15 -5 10 -9 15 -9 15 -1 0 6 5 11 10 11 6 0 10 -17 10 -38 l0 -39 80 -1 c44
0 80 4 80 9 0 5 -4 9 -10 9 -5 0 -10 12 -10 26 0 19 4 25 15 20 9 -3 15 0 15
9 0 10 -10 15 -28 15 -26 0 -28 -2 -24 -35 4 -32 2 -35 -21 -35 -14 0 -29 5
-32 10 -4 6 5 10 20 10 22 0 26 4 23 23 -2 18 -10 22 -43 23 -21 1 -41 6 -43
13 -4 13 -22 15 -22 2z"/>
<path d="M2095 1365 c0 -36 3 -45 17 -45 14 0 16 6 11 35 -5 31 -3 35 12 29
13 -5 15 -14 11 -35 -5 -26 -3 -29 19 -29 22 0 23 3 18 37 -4 26 -3 34 5 29 7
-4 13 -1 13 6 1 7 5 -5 8 -27 6 -41 6 -41 65 -44 12 -1 16 -6 12 -16 -4 -11 1
-15 19 -15 15 0 23 5 20 13 -3 6 5 17 17 22 18 8 23 18 23 45 0 33 -2 35 -37
38 -36 3 -37 2 -41 -35 l-4 -38 -1 38 c-2 28 -6 37 -20 37 -15 0 -17 -6 -14
-35 3 -21 0 -35 -7 -35 -6 0 -11 16 -11 35 l0 35 -67 0 -68 0 0 -45z"/>
<path d="M3126 1188 c1 -35 0 -49 -3 -33 -2 17 -9 36 -15 43 -14 17 -48 15
-48 -3 0 -9 6 -12 15 -9 8 4 15 1 15 -5 0 -6 -9 -11 -20 -11 -11 0 -20 -7 -20
-15 0 -8 -4 -15 -10 -15 -15 0 -12 47 3 53 9 4 8 8 -3 16 -18 13 -35 9 -34 -7
1 -7 2 -28 3 -47 l1 -35 90 0 c81 0 90 2 101 21 15 29 -3 69 -31 69 -13 0 -20
7 -20 20 0 11 -6 20 -13 20 -10 0 -13 -16 -11 -62z"/>
<path d="M2770 1225 c0 -9 -10 -15 -26 -15 -21 0 -24 -4 -19 -20 4 -11 2 -20
-4 -20 -6 0 -11 9 -11 20 0 19 -5 21 -77 18 -69 -3 -79 -6 -89 -25 -10 -21
-12 -21 -30 -7 -16 14 -17 15 -1 10 11 -3 17 0 17 9 0 20 -34 19 -51 -1 -11
-14 -10 -19 9 -34 12 -10 22 -22 22 -26 0 -4 -5 -3 -12 4 -16 16 -28 15 -28
-2 0 -11 21 -14 93 -15 l93 -1 -4 34 c-5 45 24 45 39 -1 14 -43 32 -42 48 2
16 45 34 46 29 1 l-4 -34 58 -1 c32 0 58 4 58 10 0 5 -9 9 -20 9 -24 0 -38 26
-22 42 13 13 36 -7 46 -40 5 -16 15 -22 37 -22 16 0 29 5 29 10 0 6 -9 10 -20
10 -11 0 -20 5 -20 10 0 6 11 10 25 10 28 0 29 3 15 31 -12 21 -40 25 -58 7
-9 -9 -12 -9 -12 0 0 7 -9 12 -19 12 -38 0 -51 -11 -51 -46 0 -19 -4 -34 -10
-34 -5 0 -10 25 -10 55 0 30 -4 55 -10 55 -5 0 -10 -7 -10 -15z"/>
<path d="M3558 1235 c-3 -4 -4 -28 -1 -55 3 -32 1 -50 -6 -50 -6 0 -11 16 -11
35 0 29 -4 36 -25 41 -15 4 -32 1 -41 -6 -11 -10 -18 -10 -26 -2 -7 7 -26 12
-42 12 l-31 0 0 -65 c0 -61 1 -65 23 -65 19 0 22 4 17 20 -5 15 -2 20 13 20
11 0 23 6 25 13 4 9 8 9 14 0 5 -7 45 -11 109 -12 l100 -1 -5 42 c-6 41 -8 43
-42 45 l-37 2 5 -39 c4 -26 2 -40 -6 -40 -7 0 -11 21 -11 55 0 50 -7 65 -22
50z"/>
<path d="M2031 1197 c-12 -12 -14 -37 -5 -61 5 -12 20 -16 58 -16 l53 0 -5 30
c-3 23 -1 30 13 30 14 0 16 -7 13 -30 -4 -25 -1 -30 17 -30 18 0 20 5 17 33
-3 26 0 34 12 34 11 0 16 -10 16 -34 0 -32 1 -33 41 -33 36 0 40 -2 34 -20 -5
-17 -2 -20 20 -20 22 0 25 3 20 20 -5 16 -2 20 14 20 14 0 23 9 27 27 11 42
-6 58 -69 61 l-56 3 6 -36 c4 -23 2 -35 -6 -35 -6 0 -11 15 -11 34 l0 35 -99
-1 c-59 0 -103 -4 -110 -11z"/>
<path d="M2618 1008 c-3 -7 -18 -11 -38 -10 -19 1 -37 -3 -42 -10 -6 -10 -8
-10 -8 0 0 6 -12 12 -27 12 -26 0 -28 -3 -28 -45 -1 -41 2 -45 24 -45 19 0 22
3 13 12 -16 16 -16 61 0 56 7 -3 16 -19 20 -36 7 -27 13 -32 38 -32 17 0 30 5
30 10 0 6 -9 10 -20 10 -11 0 -20 5 -20 10 0 6 9 10 20 10 12 0 21 7 21 18 1
9 4 1 8 -18 l6 -35 82 -3 82 -3 -6 36 c-5 31 -3 35 12 29 12 -5 16 -15 13 -35
-4 -28 -3 -29 40 -29 36 0 43 3 38 16 -3 9 -6 29 -6 45 l0 29 -64 0 -65 0 6
-35 c4 -23 2 -35 -6 -35 -6 0 -11 16 -11 35 0 29 -4 35 -22 35 -17 0 -19 -3
-10 -12 7 -7 12 -23 12 -36 0 -35 -24 -21 -28 16 -2 24 -8 32 -23 32 -10 0
-19 5 -19 10 0 14 -18 12 -22 -2z"/>
<path d="M3240 1010 c0 -5 -22 -10 -48 -10 l-48 0 4 -35 c3 -21 0 -35 -7 -35
-6 0 -11 16 -11 35 0 25 -4 35 -15 35 -11 0 -14 -7 -9 -25 3 -14 3 -33 -2 -42
-6 -14 -9 -8 -13 22 -5 35 -10 40 -35 43 -16 2 -32 -2 -37 -10 -7 -10 -11 -10
-21 0 -6 6 -26 12 -43 12 l-30 0 0 -65 c0 -61 1 -65 23 -65 12 0 22 5 22 10 0
6 -4 10 -10 10 -5 0 -10 5 -10 10 0 6 9 10 20 10 11 0 23 7 27 15 5 14 8 14
22 1 10 -9 41 -14 88 -15 l72 -1 -6 35 c-5 29 -3 35 12 35 15 0 17 -6 12 -35
-5 -30 -3 -35 13 -35 16 0 18 6 14 38 -4 39 0 35 10 -9 6 -26 7 -27 87 -27 60
0 78 3 70 11 -17 17 -14 60 4 53 9 -3 15 0 15 9 0 10 -10 15 -28 15 -26 0 -28
-2 -24 -35 4 -32 2 -35 -21 -35 -14 0 -29 5 -32 10 -4 6 5 10 20 10 22 0 26 4
23 23 -2 18 -10 22 -43 23 -21 1 -41 6 -43 13 -5 14 -22 15 -22 1z"/>
<path d="M2024 973 c-11 -41 6 -58 64 -61 l51 -3 -6 36 c-5 31 -3 35 12 29 13
-5 15 -14 11 -35 -5 -26 -3 -29 19 -29 21 0 23 3 18 33 -4 27 -2 34 11 34 11
0 16 -10 16 -34 0 -32 1 -33 41 -33 36 0 40 -2 34 -20 -5 -17 -2 -20 20 -20
21 0 25 4 20 19 -4 13 0 20 15 24 25 6 34 29 26 62 -6 23 -11 25 -64 25 l-58
0 4 -35 c3 -21 0 -35 -7 -35 -6 0 -11 16 -11 35 l0 35 -75 0 c-66 0 -74 -2
-69 -17 5 -17 5 -17 -6 0 -18 28 -58 22 -66 -10z"/>
<path d="M2407 773 c2 -32 0 -51 -3 -43 -4 8 -16 23 -28 33 -16 15 -17 18 -3
13 9 -3 17 -1 17 4 0 6 -12 10 -26 10 -20 0 -25 -5 -24 -22 4 -42 -3 -54 -9
-18 -5 29 -11 36 -33 38 -17 2 -28 -2 -28 -8 0 -7 7 -10 15 -6 8 3 15 1 15 -4
0 -6 -7 -10 -15 -10 -9 0 -20 -10 -25 -22 -8 -20 -9 -18 -9 15 l-1 37 -63 0
-63 0 2 -37 3 -38 -7 35 c-6 31 -11 35 -42 38 -35 3 -35 3 -35 -38 l0 -40 113
-1 c256 -3 285 -2 277 11 -3 6 -1 10 4 10 6 0 11 -4 11 -9 0 -11 62 -21 87
-15 15 4 18 13 15 45 -4 33 -7 39 -28 39 -13 0 -24 -4 -24 -10 0 -5 7 -7 15
-4 8 4 15 1 15 -5 0 -6 -7 -11 -15 -11 -9 0 -19 -10 -24 -22 l-8 -22 -13 24
c-11 20 -10 25 6 37 17 13 17 13 0 13 -11 0 -25 -8 -32 -17 -12 -16 -13 -14
-14 20 0 23 -5 37 -12 37 -9 0 -12 -17 -11 -57z"/>
<path d="M2960 800 c0 -5 -22 -10 -48 -10 l-48 0 4 -35 c3 -21 0 -35 -7 -35
-6 0 -11 16 -11 35 0 22 -5 35 -13 35 -9 0 -12 -10 -9 -31 3 -20 0 -34 -9 -40
-9 -6 2 -9 32 -9 45 0 45 0 41 30 -3 23 -1 30 13 30 14 0 16 -7 13 -30 -3 -23
-1 -30 12 -30 12 0 15 9 13 38 -2 34 1 28 12 -24 5 -23 1 -22 135 -14 19 1 29
4 23 7 -7 2 -13 16 -13 30 0 18 4 24 14 20 8 -3 17 -1 20 6 3 7 5 -5 3 -25 -2
-30 1 -38 13 -38 13 0 15 7 12 30 -3 25 -1 29 12 24 9 -3 16 -17 16 -29 0 -30
11 -36 47 -29 26 5 28 8 25 45 -2 21 -9 39 -16 39 -8 0 -11 -12 -8 -35 3 -21
0 -35 -7 -35 -6 0 -11 16 -11 35 l0 35 -73 0 -73 0 4 -35 c4 -32 2 -35 -21
-35 -14 0 -29 5 -32 10 -4 6 5 10 20 10 22 0 26 4 23 23 -2 18 -10 22 -43 23
-21 1 -41 6 -43 13 -5 14 -22 15 -22 1z"/>
<path d="M3588 800 c-8 -25 5 -100 17 -100 8 0 17 5 20 10 3 6 1 10 -4 10 -6
0 -11 14 -11 30 0 17 5 30 10 30 6 0 10 -13 10 -29 0 -41 16 -49 80 -41 30 4
49 8 43 9 -7 0 -13 13 -13 27 0 19 4 25 14 21 8 -3 17 -1 20 6 3 7 5 -5 3 -25
l-3 -38 41 0 42 0 -6 38 -6 37 -66 3 -65 3 4 -36 c3 -21 0 -35 -7 -35 -6 0
-11 16 -11 35 0 22 -5 35 -13 35 -9 0 -12 -11 -9 -35 3 -21 0 -35 -7 -35 -6 0
-11 16 -11 35 0 31 -3 35 -25 35 -14 0 -25 5 -25 10 0 13 -17 13 -22 0z"/>
<path d="M2280 570 c0 -16 -7 -20 -30 -20 -16 0 -30 -4 -30 -10 0 -5 14 -10
31 -10 30 0 31 -2 27 -35 -4 -31 -1 -35 20 -35 19 0 22 4 17 20 -5 15 -2 20
14 20 11 0 24 7 29 16 8 15 10 15 15 0 9 -24 54 -20 68 5 17 32 -3 69 -37 69
-18 0 -28 -6 -31 -20 l-6 -21 -14 21 c-20 28 -73 28 -73 0z"/>
<path d="M2141 387 c-6 -8 -23 -12 -41 -9 -24 3 -30 1 -30 -13 0 -14 3 -15 15
-5 9 7 15 8 15 2 0 -22 -34 -23 -50 -2 -33 44 -89 5 -69 -47 10 -27 53 -31 67
-7 8 15 10 15 15 -1 5 -12 17 -16 44 -15 21 1 77 2 126 1 72 -1 87 -4 87 -17
0 -12 9 -14 38 -12 30 2 38 7 40 26 3 18 -1 22 -25 23 -25 0 -26 1 -7 9 17 6
40 57 31 67 -1 1 -18 -2 -37 -6 -28 -5 -35 -12 -37 -31 -2 -43 -5 -46 -12 -10
-5 31 -10 35 -42 38 -35 3 -35 3 -31 -33 3 -21 0 -35 -7 -35 -6 0 -11 16 -11
35 0 31 -3 35 -25 35 -14 0 -25 5 -25 10 0 14 -16 12 -29 -3z"/>
</g>
</svg>
