<?xml version="1.0" standalone="no"?>
<!DOCTYPE svg PUBLIC "-//W3C//DTD SVG 20010904//EN"
 "http://www.w3.org/TR/2001/REC-SVG-20010904/DTD/svg10.dtd">
<svg version="1.0" xmlns="http://www.w3.org/2000/svg"
 width="1280.000000pt" height="516.000000pt" viewBox="0 0 1280.000000 516.000000"
 preserveAspectRatio="xMidYMid meet">
<metadata>
Created by potrace 1.16, written by Peter Selinger 2001-2019
</metadata>
<g transform="translate(0.000000,516.000000) scale(0.100000,-0.100000)"
fill="#000000" stroke="none">
<path d="M10374 3279 c-3 -6 -3 -53 1 -105 l7 -94 -27 -12 c-36 -16 -61 0 -57
38 2 28 2 28 -13 10 -33 -42 -12 -86 40 -86 44 0 75 25 75 61 0 24 4 29 25 29
14 0 25 4 25 9 0 4 11 6 24 4 29 -6 40 10 32 43 -8 32 -39 31 -54 -1 -13 -28
-37 -33 -46 -9 -3 9 -6 40 -6 70 0 51 -10 68 -26 43z"/>
<path d="M5540 2779 c-52 -21 -120 -71 -120 -89 0 -10 15 -30 32 -44 38 -29
29 -50 -18 -44 -28 3 -29 6 -36 67 -4 35 -9 66 -12 69 -13 13 -18 -36 -10 -96
l9 -67 46 -3 c32 -2 51 2 62 13 20 19 31 19 47 0 13 -16 55 -20 64 -6 3 4 16
6 30 4 29 -6 39 8 30 42 -8 32 -37 33 -58 0 -21 -32 -28 -31 -68 4 -18 15 -46
35 -62 43 l-28 15 29 21 c17 12 42 26 56 31 14 6 31 19 37 31 12 22 7 24 -30
9z"/>
<path d="M9682 2737 c-10 -11 -12 -31 -7 -70 7 -58 -4 -79 -30 -57 -9 7 -15 8
-20 0 -10 -16 -52 -12 -59 6 -3 9 -6 40 -6 71 0 39 -3 53 -12 50 -9 -3 -12
-23 -10 -63 5 -111 -3 -105 125 -105 193 0 221 2 264 21 24 11 43 26 43 34 0
19 -2 19 -35 4 -19 -9 -28 -9 -37 0 -9 9 -7 12 8 13 10 1 25 1 33 0 7 -2 11 4
9 11 -12 36 -88 8 -88 -34 0 -24 -21 -23 -54 3 l-27 21 -25 -23 c-34 -32 -48
-14 -54 68 -4 57 -7 64 -18 50z"/>
<path d="M10159 2728 c-3 -39 4 -114 12 -135 10 -28 48 -31 102 -8 31 13 36
13 41 0 4 -11 21 -15 55 -15 46 0 51 2 57 25 3 14 3 32 0 41 -8 21 -29 6 -23
-17 4 -15 0 -19 -20 -19 -18 0 -24 4 -19 15 4 11 -1 15 -18 15 -13 0 -41 6
-63 14 -26 9 -45 11 -56 4 -26 -14 -20 -28 11 -28 21 0 24 -2 12 -10 -8 -5
-25 -10 -36 -10 -20 0 -23 7 -29 70 -4 39 -11 70 -16 70 -5 0 -9 -6 -10 -12z"/>
<path d="M1560 2667 c0 -7 -9 -18 -20 -25 -30 -18 -26 -52 5 -52 14 0 25 -4
25 -10 0 -15 53 -12 93 5 45 19 47 19 47 -1 0 -12 10 -14 53 -12 l52 3 3 38
c2 21 -1 37 -7 37 -11 0 -15 -13 -12 -37 1 -7 -7 -13 -19 -13 -11 0 -20 6 -20
13 0 7 -21 17 -47 24 -27 6 -55 14 -64 18 -10 3 -24 -1 -35 -12 -17 -17 -17
-18 12 -23 24 -5 26 -7 11 -13 -35 -14 -45 -7 -52 33 -6 37 -25 57 -25 27z"/>
<path d="M3964 2643 c-17 -17 -17 -18 12 -24 l29 -6 -29 -8 c-18 -5 -31 -4
-35 4 -6 9 -15 8 -37 -4 -55 -28 -144 -13 -144 25 0 11 -4 20 -10 20 -5 0 -10
-16 -10 -35 0 -47 24 -58 108 -51 37 3 81 5 98 5 17 0 47 7 67 16 45 19 47 19
47 -1 0 -14 12 -15 91 -11 93 5 109 12 109 49 0 24 -17 31 -24 11 -6 -15 -8
-15 -16 -3 -8 12 -10 12 -16 -3 -7 -19 -34 -23 -34 -5 0 6 -7 4 -18 -5 -22
-20 -54 -23 -47 -4 4 8 -11 16 -42 24 -27 6 -55 14 -64 18 -10 3 -24 -1 -35
-12z"/>
<path d="M8897 2630 c-37 -32 -53 -37 -60 -17 -4 10 -7 10 -18 0 -7 -7 -21
-13 -30 -13 -10 0 -25 -10 -34 -22 -15 -22 -14 -24 7 -41 22 -18 21 -18 -28
-15 -48 3 -49 4 -49 36 0 46 -19 33 -23 -16 -4 -51 20 -67 82 -58 67 11 100
57 54 76 -23 9 -23 9 2 11 36 2 54 -2 61 -13 4 -7 9 -6 13 1 4 6 16 11 27 11
27 0 75 26 82 45 20 50 -36 60 -86 15z"/>
<path d="M7554 2623 c-21 -27 -30 -27 -70 2 -19 14 -23 13 -44 -5 -26 -23 -36
-25 -45 -10 -5 8 -11 7 -20 0 -8 -6 -29 -10 -47 -8 -30 3 -33 1 -30 -23 3 -30
-22 -56 -58 -61 l-25 -3 23 -13 c20 -11 27 -11 48 3 14 9 29 27 34 40 8 20 17
24 67 27 32 2 63 0 69 -4 11 -8 62 -3 94 9 8 3 25 5 37 4 27 -3 35 11 27 44
-8 33 -35 32 -60 -2z"/>
<path d="M7255 2204 c-33 -19 -63 -40 -66 -46 -10 -16 1 -40 30 -65 22 -19 24
-24 11 -33 -16 -11 -109 -14 -134 -4 -9 3 -16 16 -16 27 0 15 -3 18 -11 10 -6
-6 -9 -23 -7 -39 2 -21 10 -30 33 -36 42 -12 131 1 158 22 22 17 23 17 46 -1
32 -26 87 -25 101 1 12 22 5 60 -11 60 -9 0 -13 -14 -10 -37 3 -24 -35 -13
-87 26 -28 22 -57 41 -64 43 -20 7 5 32 54 54 42 18 58 31 58 47 0 15 -28 6
-85 -29z"/>
<path d="M1817 2184 c-8 -9 4 -136 15 -150 5 -7 57 -11 148 -12 129 0 141 2
151 19 11 21 4 59 -12 59 -9 0 -13 -14 -10 -37 3 -19 -27 -16 -38 5 -9 15 -12
15 -22 2 -8 -12 -12 -12 -16 -2 -4 10 -8 10 -20 1 -12 -10 -16 -10 -23 1 -7
11 -11 10 -25 -3 -19 -19 -32 -22 -37 -7 -2 7 -14 6 -35 -2 -18 -7 -36 -9 -40
-5 -4 4 -9 37 -11 72 -4 61 -10 74 -25 59z"/>
<path d="M4367 2184 c-8 -9 3 -124 15 -146 11 -22 44 -23 93 -2 35 14 39 14
47 0 6 -11 23 -16 54 -16 37 0 46 4 56 24 11 26 5 56 -12 56 -5 0 -10 -11 -10
-25 0 -18 -5 -25 -20 -25 -11 0 -20 6 -20 13 0 15 -112 49 -134 41 -27 -10
-18 -34 12 -35 l27 -1 -30 -9 c-40 -12 -48 -1 -53 71 -4 56 -10 69 -25 54z"/>
<path d="M9829 2178 c-3 -39 4 -114 12 -135 10 -28 40 -30 94 -7 35 14 39 14
47 0 9 -17 78 -23 92 -8 4 4 18 7 29 7 17 0 23 7 25 31 4 36 -20 53 -40 28
-30 -35 -40 -44 -50 -44 -5 0 -8 7 -4 15 3 10 -1 15 -13 15 -9 0 -39 7 -64 16
-38 13 -51 14 -62 4 -23 -19 -18 -30 13 -31 l27 -1 -30 -9 c-16 -4 -33 -5 -37
-1 -4 4 -11 36 -14 70 -4 34 -11 62 -15 62 -5 0 -9 -6 -10 -12z"/>
<path d="M3950 2104 c-6 -14 -10 -29 -10 -34 0 -15 -22 -23 -29 -11 -5 8 -15
8 -38 -1 -26 -10 -35 -9 -57 5 -33 22 -38 21 -65 -4 -21 -20 -23 -28 -17 -81
11 -95 27 -117 23 -31 -5 80 -1 93 20 63 17 -24 33 -26 33 -5 0 15 36 21 106
16 18 -1 35 2 38 8 4 5 22 7 41 4 33 -5 35 -4 35 21 0 27 -39 76 -60 76 -6 0
-15 -12 -20 -26z"/>
<path d="M10467 2123 c-3 -5 -8 -23 -12 -40 -7 -35 -14 -40 -32 -22 -8 8 -16
7 -31 -2 -18 -11 -27 -10 -57 4 -68 32 -99 -9 -83 -108 15 -90 32 -95 24 -8
-5 46 -3 73 3 78 6 3 11 -1 11 -9 0 -23 22 -31 35 -13 8 11 33 18 81 22 38 2
85 6 104 7 44 4 49 25 15 67 -26 30 -49 39 -58 24z"/>
<path d="M2765 2079 c-29 -26 -38 -29 -51 -19 -11 10 -18 10 -26 2 -16 -16
-28 -15 -28 3 0 21 -30 31 -41 14 -15 -25 -11 -59 9 -59 28 -1 -25 -40 -54
-40 -27 0 -32 -15 -8 -24 30 -12 53 -6 73 20 11 14 21 30 23 36 5 14 61 13 66
-1 2 -7 9 -8 15 -3 7 5 31 14 54 21 43 12 69 41 59 67 -9 24 -53 16 -91 -17z"/>
<path d="M5637 2078 l-25 -33 -31 23 c-35 26 -49 28 -57 8 -8 -20 -36 -29 -44
-15 -5 8 -13 7 -28 -2 -16 -10 -26 -10 -45 -2 -20 10 -26 9 -31 -3 -3 -8 -3
-21 1 -29 7 -20 -24 -55 -49 -55 -10 0 -18 -4 -18 -10 0 -5 13 -10 29 -10 27
0 63 30 73 61 2 5 32 9 68 9 127 0 144 1 155 10 6 5 21 7 33 3 27 -7 39 19 24
53 -15 32 -24 30 -55 -8z"/>
<path d="M6663 2104 c-24 -10 -14 -34 15 -35 l27 -1 -29 -9 c-18 -5 -34 -5
-41 1 -8 7 -23 4 -44 -6 -55 -28 -158 0 -135 37 4 7 2 10 -7 7 -8 -2 -15 -16
-17 -31 -5 -42 34 -61 111 -53 34 3 76 6 93 6 17 0 48 7 69 16 35 14 39 14 47
0 7 -12 24 -16 71 -15 34 1 67 4 72 7 6 4 15 7 20 8 6 0 16 2 23 2 14 2 17 62
2 62 -5 0 -10 -8 -10 -17 0 -16 -2 -16 -10 -3 -9 13 -12 13 -21 -2 -11 -20
-39 -24 -39 -6 0 6 -7 4 -18 -5 -22 -20 -42 -22 -42 -4 0 7 -21 19 -47 26 -70
19 -77 20 -90 15z"/>
<path d="M9155 2094 c-8 -9 -15 -19 -15 -24 0 -19 -33 -18 -60 1 l-28 22 -28
-22 c-20 -15 -30 -18 -40 -10 -9 7 -18 6 -33 -3 -17 -10 -25 -10 -41 -1 -22
14 -35 2 -26 -24 8 -21 -31 -63 -58 -63 -14 0 -17 -3 -9 -11 6 -6 23 -9 39 -7
21 2 33 12 44 35 16 34 20 35 105 34 89 -2 128 0 139 7 6 4 20 7 31 7 15 0 21
8 23 31 4 37 -19 51 -43 28z"/>
<path d="M10733 2099 c-20 -20 -15 -29 15 -30 24 0 25 -1 7 -9 -32 -14 -42
-11 -48 11 -9 33 -41 20 -45 -19 -3 -25 0 -32 15 -32 29 -1 -23 -40 -53 -40
-32 0 -31 -18 1 -26 34 -8 53 0 72 33 21 37 111 69 128 46 7 -10 25 -13 60
-11 l50 3 3 39 c3 28 0 37 -10 34 -7 -3 -13 -15 -12 -27 0 -15 -5 -21 -22 -21
-15 0 -22 5 -19 13 4 8 -11 16 -42 24 -27 7 -57 15 -68 18 -11 3 -26 0 -32 -6z"/>
<path d="M5468 1654 c-114 -40 -138 -72 -78 -107 39 -24 38 -37 -4 -37 -32 0
-34 2 -40 42 l-7 41 -29 -34 c-33 -38 -35 -64 -5 -64 11 0 24 -6 28 -12 10
-16 61 -17 88 -3 25 14 25 62 -1 85 -11 10 -20 22 -20 26 0 4 23 15 51 24 28
10 53 24 56 31 8 22 2 23 -39 8z"/>
<path d="M1677 1635 c-4 -8 -3 -37 0 -65 6 -50 6 -50 -29 -65 -30 -12 -48 -31
-48 -51 0 -3 10 -9 23 -13 22 -9 22 -9 -5 -16 -16 -4 -40 -4 -54 -1 -24 6 -26
11 -21 41 7 43 -7 46 -22 5 -18 -54 2 -80 61 -80 70 0 119 40 82 67 -22 16
-32 15 166 15 80 0 150 4 155 8 6 5 21 10 35 12 19 2 26 10 28 31 2 15 -1 27
-7 27 -6 0 -11 -5 -11 -11 0 -6 -6 -9 -12 -6 -7 2 -21 -3 -31 -11 -15 -13 -20
-14 -26 -3 -6 9 -11 10 -15 2 -10 -16 -62 -13 -76 4 -15 19 -34 19 -49 2 -6
-8 -32 -14 -60 -15 -56 -1 -61 6 -61 91 0 46 -12 62 -23 32z"/>
<path d="M8717 1643 c-4 -3 -7 -34 -7 -68 l0 -61 -55 -2 -55 -1 0 52 c0 52
-13 88 -26 75 -3 -4 -3 -41 1 -82 5 -58 10 -76 23 -80 31 -8 112 -4 118 5 4 6
10 6 17 1 20 -16 187 -8 230 10 41 19 54 54 15 43 -13 -4 -25 -8 -28 -9 -3 0
-6 4 -8 9 -1 6 9 11 23 13 22 3 24 6 14 18 -6 8 -19 14 -29 14 -21 0 -50 -31
-50 -53 0 -22 -43 -23 -60 -2 -16 19 -29 19 -51 -1 -31 -28 -49 -11 -49 48 0
53 -10 84 -23 71z"/>
<path d="M4857 1633 c-5 -10 8 -137 16 -150 4 -6 65 -10 148 -10 137 0 141 1
151 23 11 25 5 54 -12 54 -5 0 -10 -9 -10 -20 0 -13 -7 -20 -20 -20 -11 0 -20
5 -20 11 0 8 -6 7 -17 -2 -13 -11 -17 -11 -21 -1 -3 10 -7 10 -19 1 -12 -10
-16 -10 -24 2 -6 9 -11 11 -16 3 -5 -6 -33 -11 -64 -12 l-56 -1 -7 37 c-3 20
-6 49 -6 65 0 25 -13 37 -23 20z"/>
<path d="M6221 1588 c3 -117 23 -137 100 -103 35 16 39 16 54 1 19 -19 85 -22
103 -4 16 16 16 71 0 65 -7 -2 -12 -12 -12 -21 1 -11 -6 -16 -22 -16 -17 0
-22 4 -18 15 5 11 -1 15 -21 15 -15 0 -45 5 -66 11 -30 9 -42 9 -54 -1 -22
-18 -19 -28 13 -33 22 -3 20 -4 -10 -6 -35 -1 -38 1 -38 27 0 45 -12 102 -21
102 -5 0 -8 -24 -8 -52z"/>
<path d="M5810 1554 c-6 -14 -10 -29 -10 -33 0 -11 -110 -12 -131 0 -22 12
-53 -2 -68 -30 -12 -21 7 -151 21 -151 5 0 6 29 2 70 -5 49 -3 70 5 70 6 0 11
-7 11 -15 0 -17 36 -21 42 -4 2 6 30 11 66 11 34 0 65 4 68 9 3 5 20 7 38 3
28 -5 34 -2 39 15 6 24 -35 81 -59 81 -8 0 -19 -12 -24 -26z"/>
<path d="M3863 1549 c-20 -20 -15 -29 15 -30 l27 -1 -30 -7 c-24 -5 -31 -3
-33 11 -2 10 -12 18 -23 18 -27 0 -38 -49 -15 -66 16 -11 15 -13 -6 -28 -12
-9 -34 -16 -47 -16 -23 0 -24 -1 -9 -16 23 -23 65 -10 85 25 17 28 64 48 143
61 53 8 52 36 -2 43 -24 4 -54 9 -68 12 -14 4 -30 1 -37 -6z"/>
<path d="M10487 1554 c-14 -14 -7 -33 16 -37 13 -3 8 -5 -15 -6 -22 0 -38 4
-38 10 0 8 -5 7 -16 -2 -13 -10 -17 -10 -24 1 -7 11 -11 10 -25 -4 -13 -13
-20 -14 -31 -5 -22 18 -35 1 -28 -37 5 -30 3 -35 -21 -44 -37 -14 -69 4 -62
36 6 31 -11 31 -23 0 -30 -80 83 -108 120 -29 17 37 28 41 95 36 30 -2 68 4
94 13 40 15 44 15 53 0 14 -25 94 -22 108 4 12 22 5 60 -11 60 -8 0 -13 -15
-10 -32 0 -5 -8 -8 -19 -8 -11 0 -20 6 -20 14 0 8 -15 16 -37 19 -21 3 -52 9
-68 12 -17 4 -33 3 -38 -1z"/>
<path d="M8850 1133 c-8 -3 -36 -19 -62 -35 -58 -36 -63 -66 -18 -98 37 -26
31 -40 -19 -40 -25 0 -44 -7 -56 -20 -20 -22 -14 -50 12 -51 16 0 16 -1 -2 -9
-54 -23 -99 1 -89 48 5 26 5 26 -10 8 -37 -45 -9 -96 52 -96 54 0 87 20 87 53
-1 21 5 28 28 33 15 3 33 14 39 24 11 18 13 17 42 -7 46 -39 110 -19 104 31
-4 27 -28 33 -28 7 0 -30 -35 -27 -78 7 -20 15 -49 34 -65 43 l-29 16 48 27
c27 15 55 31 63 35 36 19 20 38 -19 24z"/>
<path d="M9385 1098 c-27 -11 -55 -24 -62 -30 -21 -17 -15 -54 12 -72 35 -23
31 -38 -7 -34 -30 3 -33 6 -36 41 -2 20 -7 37 -13 37 -5 0 -9 -5 -9 -11 0 -6
-11 -20 -25 -31 -32 -25 -32 -48 -1 -48 13 0 29 -7 37 -16 9 -11 22 -14 48 -9
66 12 80 47 36 91 -14 14 -25 27 -25 29 0 2 17 9 38 15 45 15 82 37 82 50 0
14 -17 11 -75 -12z"/>
<path d="M10327 1097 c-3 -7 -1 -33 4 -58 13 -71 12 -79 -15 -79 -19 0 -23 4
-19 20 4 14 -1 21 -21 26 -30 7 -60 -12 -52 -33 7 -18 -38 -17 -54 2 -16 19
-29 19 -51 -1 -31 -28 -47 -11 -54 60 -11 96 -25 70 -25 -43 0 -106 -8 -125
-52 -119 -19 2 -23 9 -22 36 1 17 -2 32 -7 32 -11 0 -22 -42 -17 -71 2 -20 10
-25 40 -27 53 -4 78 12 78 51 l0 32 83 2 c45 0 93 2 107 4 14 1 36 -1 50 -5
16 -4 32 -2 45 8 20 14 20 23 12 145 -2 27 -22 39 -30 18z"/>
<path d="M3780 995 c-6 -8 -9 -19 -5 -25 8 -13 -18 -13 -32 1 -8 8 -13 8 -17
0 -4 -6 -17 -11 -30 -11 -47 0 -75 -69 -29 -71 16 0 16 -1 -2 -9 -54 -23 -99
1 -89 48 5 26 5 26 -10 8 -37 -45 -9 -96 52 -96 53 0 87 20 87 50 0 29 13 42
37 34 10 -3 27 0 38 6 16 8 30 8 56 0 26 -9 39 -9 47 -1 6 6 24 11 39 11 21 0
28 5 28 19 0 54 -29 67 -56 26 -18 -28 -57 -36 -47 -9 11 30 -44 46 -67 19z"/>
<path d="M6037 1004 c-16 -16 -7 -35 13 -29 11 4 20 2 20 -4 0 -14 -43 -14
-57 0 -8 8 -13 8 -17 0 -9 -14 -48 -14 -80 0 -21 10 -30 9 -52 -6 -26 -17 -26
-19 -20 -83 10 -96 29 -117 22 -24 -4 66 4 93 18 57 6 -17 33 -20 38 -5 2 5
32 12 68 14 36 2 90 12 120 21 30 10 61 20 68 21 25 7 11 22 -25 28 -21 3 -54
8 -73 11 -19 4 -38 3 -43 -1z"/>
<path d="M1665 977 c-17 -26 -17 -29 0 -46 16 -19 15 -20 -9 -36 -14 -10 -33
-15 -41 -11 -18 7 -20 -5 -3 -22 20 -20 39 -14 75 24 32 34 39 37 101 41 110
6 137 14 140 46 3 27 -11 37 -23 17 -4 -6 -11 -8 -16 -4 -6 3 -17 -2 -24 -12
-13 -17 -16 -17 -26 -4 -8 11 -12 12 -16 3 -2 -7 -13 -13 -23 -13 -10 0 -21 6
-24 13 -5 10 -7 10 -12 0 -9 -20 -44 -15 -63 9 l-18 22 -18 -27z"/>
<path d="M9713 980 c4 -17 0 -20 -32 -20 -43 0 -81 -23 -81 -51 0 -13 7 -19
23 -20 16 -1 13 -3 -12 -11 -24 -6 -42 -6 -59 2 -20 9 -23 16 -18 40 3 17 2
30 -3 30 -22 0 -29 -78 -9 -98 15 -15 83 -15 111 0 12 6 40 12 62 12 29 1 40
5 40 16 0 18 -47 23 -57 6 -5 -7 -8 -5 -8 7 0 9 -6 17 -12 18 -7 0 7 6 32 12
41 11 45 15 48 45 3 25 -1 32 -14 32 -11 0 -15 -6 -11 -20z"/>
<path d="M10587 983 c-21 -25 -22 -42 0 -58 15 -11 14 -14 -10 -30 -15 -9 -33
-15 -42 -12 -26 10 -27 -13 -1 -24 21 -10 30 -9 52 6 14 9 29 26 31 36 3 10
13 20 22 20 9 1 34 3 56 4 97 5 144 16 151 37 7 23 -15 52 -23 30 -3 -6 -9 -9
-15 -6 -5 3 -16 -2 -23 -12 -12 -16 -16 -17 -24 -5 -8 13 -12 13 -26 1 -13
-11 -21 -11 -35 -2 -12 7 -21 8 -25 2 -10 -17 -36 -11 -54 11 -16 20 -17 20
-34 2z"/>
<path d="M10174 537 c-3 -10 -2 -48 2 -85 9 -64 10 -67 37 -70 16 -2 48 3 73
12 38 13 44 13 44 0 0 -16 75 -21 84 -5 3 4 16 6 30 4 29 -6 40 10 32 43 -8
32 -39 31 -60 -1 -17 -26 -49 -35 -40 -11 5 13 0 14 -112 33 -23 3 -33 0 -37
-11 -5 -12 0 -16 21 -17 26 0 26 -1 5 -11 -39 -19 -53 -4 -53 54 0 60 -14 95
-26 65z"/>
</g>
</svg>
